<svg height="308" width="166" fill="none" viewBox="0 0 166 308" xmlns="http://www.w3.org/2000/svg">
	<path d="M33.534 244.036C31.6673 245.903 33.934 247.103 52.734 254.836C67.2673 260.97 73.2673 262.836 74.8673 261.903C76.734 260.836 76.4673 260.436 73.2673 259.236C71.134 258.57 61.534 254.57 51.8007 250.57C42.2007 246.57 33.934 243.636 33.534 244.036Z" fill="#FF5900"/>
	<path d="M51.2858 55.1517C38.4858 60.6184 32.6191 63.685 33.0191 64.885C33.5525 66.2184 37.4191 65.0184 47.9525 60.6184C55.8191 57.285 65.4191 53.4184 69.1525 51.9517C75.6858 49.4184 77.5525 46.7517 72.4858 47.0184C71.2858 47.0184 61.6858 50.7517 51.2858 55.1517Z" fill="#FF5900"/>
	<path d="M23.8305 257.933C-0.702824 297.4 -2.83616 302.2 2.23051 306.333C6.09718 309.533 13.4305 306.733 30.7638 295.133C47.2972 283.933 65.4305 270.333 65.5638 268.866C65.5638 268.2 29.6972 253 27.9638 253C27.4305 253 25.5638 255.266 23.8305 257.933Z" fill="#FF5900"/>
	<path d="M2.27747 3.60003C1.74414 5.4667 2.0108 8.93336 2.8108 11.0667C4.14414 14.5334 23.4775 46.5334 27.7441 52.5334C29.4775 54.8 30.4108 54.5334 48.2775 47.2C58.6775 42.9334 67.0775 39.0667 67.0775 38.5334C67.0775 36.8 48.6775 22.6667 31.8775 11.3334C16.9441 1.4667 14.1441 3.05176e-05 8.94414 3.05176e-05C3.74414 3.05176e-05 3.07747 0.400032 2.27747 3.60003Z" fill="#F36811"/>
	<path d="M58 64.5334C47.0667 69.2001 37.4667 73.3334 36.6667 73.6001C36 73.8668 44.8 88.4001 56.2667 106C67.7333 123.467 78.1333 140.133 79.2 142.8C81.8667 148.933 81.8667 159.2 79.4667 166C78.5333 168.933 68.2667 185.467 56.8 202.933C45.3333 220.4 36 235.067 36 235.6C36 236.133 45.7333 240.667 57.4667 245.6L79.0667 254.533L86.6667 247.867C90.8 244.267 105.333 230 118.933 216.133C159.067 175.067 165.2 166.933 165.333 154.8C165.333 147.6 162.667 141.067 156.4 133.333C148.8 124 81.0667 55.8668 79.4667 56.0001C78.6667 56.0001 69.0667 59.8668 58 64.5334Z" fill="#FF5900"/>
</svg>