<svg width="160" height="158" viewBox="0 0 160 158" fill="none" xmlns="http://www.w3.org/2000/svg">
<path fill-rule="evenodd" clip-rule="evenodd" d="M26.5566 79.1061C26.5566 108.6 50.673 132.515 80.4298 132.515C110.187 132.515 134.303 108.6 134.303 79.1062C134.303 49.6127 110.187 25.6971 80.4299 25.6971C50.673 25.6971 26.5566 49.6126 26.5566 79.1061ZM25.9873 79.1061C25.9873 108.917 50.362 133.083 80.4298 133.083C110.498 133.083 134.872 108.917 134.872 79.1062C134.872 49.2954 110.498 25.1289 80.4299 25.1289C50.3621 25.1289 25.9873 49.2953 25.9873 79.1061Z" fill="#E85506"/>
<path d="M4.26279 49.2198L7.94017 46.9506L3.65162 47.1004L0 57.2165L16.2371 63.0439L19.5177 53.9558L14.7696 48.9267C17.0434 52.672 18.5066 56.3902 16.7149 60.8404L8.98298 58.0654L11.5467 50.9631L11.289 50.8706L8.72525 57.9729L1.06359 55.2231C2.22082 51.9439 2.79241 50.4338 4.26279 49.2198Z" fill="white"/>
<path d="M28.4543 38.4745L18.9747 40.3857L17.2684 32.9039L17.0585 33.2416L18.7004 40.4499L11.6922 41.8731L10.0653 44.49L19.2152 42.6378L21.0019 50.4615L21.1987 50.1449L19.4764 42.5948L26.8274 41.0914L28.4543 38.4745Z" fill="white"/>
<path d="M23.1194 26.7145C24.6887 15.1086 38.9745 26.0835 33.4941 31.7829C32.3394 32.9837 30.5765 33.7407 29.4082 32.6237L23.1194 26.7145ZM34.862 40.693L35.0169 38.0204L30.038 33.2603C31.6574 34.0517 33.6738 31.9548 33.6738 31.9548C36.3279 29.1947 34.4744 23.9827 34.4744 23.9827C32.0974 18.167 23.6314 19.2577 22.9217 26.5254L21.5197 25.185L21.5822 29.8199L21.7946 28.1998L34.862 40.693Z" fill="white"/>
<path d="M43.7024 22.3293C42.0176 20.0786 39.7507 16.8414 38.0141 14.2055L37.6221 13.6305C36.1523 11.4743 34.2657 9.06007 34.3503 6.1806C33.3322 10.4734 35.0844 13.3088 36.3443 15.157L36.4283 15.2802L41.8663 23.2134C43.0981 25.0206 44.2983 24.8376 46.3577 23.4418C45.4631 23.8079 44.5275 23.4513 43.7024 22.3293Z" fill="white"/>
<path d="M53.5568 6.25031C50.0642 6.0627 46.6676 9.00064 46.5444 12.5104C46.417 16.0756 49.6476 19.1054 53.1863 19.2742C56.6695 19.4388 60.0816 16.7359 60.186 13.1802C60.3323 9.66097 57.0631 6.40553 53.5568 6.25031ZM52.6796 18.8904C50.2094 18.7694 48.404 16.5274 48.6344 12.4912C48.9322 8.1594 51.6993 6.44316 54.1139 6.55994C56.5611 6.69032 58.6638 9.1332 58.1327 13.1577C57.6877 16.9325 55.0942 19.0072 52.6796 18.8904Z" fill="white"/>
<path d="M70.9635 3.39774L71.7017 1.60013C71.1826 1.66807 70.7704 1.76729 70.7704 1.76729C67.8049 2.29956 66.3698 5.2819 66.4815 6.32146L65.8198 2.65587L63.8102 3.01659L64.3572 6.0468L65.7709 14.0177C65.8635 14.5309 65.7851 14.7973 65.6729 15.2968L69.0794 14.6853C68.6074 14.5935 67.9638 14.5324 67.805 13.6526L66.5742 6.83464C66.4953 6.11716 66.779 4.32542 70.4287 3.51895C70.4287 3.51895 70.6738 3.47496 70.9635 3.39774Z" fill="white"/>
<path d="M106.044 0.02236C106.432 0.76121 107.273 2.79333 106.904 3.55342L100.63 16.4974L100.787 16.573L107.194 3.52734L110.777 15.7063L123.503 8.79493L116.145 23.9745L118.14 24.9361L125.65 9.4436L123.61 8.46034L112.676 14.4704L108.947 1.39385L106.055 0L106.044 0.02236Z" fill="white"/>
<path d="M153.266 78.121L152.607 69.1815L152.26 69.207L152.919 78.1465L153.266 78.121Z" fill="white"/>
<path d="M155.737 108.78L152.06 111.049L156.348 110.9L160 100.784L143.763 94.9561L140.482 104.044L145.23 109.073C142.957 105.328 141.493 101.61 143.285 97.1596L151.017 99.9346L148.453 107.037L148.711 107.129L151.275 100.027L158.936 102.777C157.779 106.056 157.208 107.566 155.737 108.78Z" fill="white"/>
<path d="M130.843 119.671L140.323 117.76L142.029 125.242L142.239 124.904L140.597 117.696L147.605 116.272L149.232 113.656L140.082 115.508L138.295 107.684L138.099 108.001L139.821 115.551L132.47 117.054L130.843 119.671Z" fill="white"/>
<path d="M135.732 131.471C134.163 143.077 119.877 132.102 125.358 126.403C126.512 125.202 128.275 124.445 129.443 125.562L135.732 131.471ZM123.99 117.493L123.835 120.166L128.814 124.926C127.194 124.134 125.178 126.231 125.178 126.231C122.524 128.991 124.377 134.203 124.377 134.203C126.754 140.019 135.22 138.928 135.93 131.66L137.332 133.001L137.269 128.366L137.057 129.986L123.99 117.493Z" fill="white"/>
<path d="M117.247 135.96C118.932 138.211 121.199 141.448 122.936 144.084L123.328 144.659C124.798 146.815 126.684 149.229 126.6 152.109C127.618 147.816 125.865 144.981 124.606 143.132L124.522 143.009L119.084 135.076C117.852 133.269 116.652 133.452 114.592 134.848C115.487 134.481 116.422 134.838 117.247 135.96Z" fill="white"/>
<path d="M107.687 151.635C111.18 151.823 114.577 148.885 114.7 145.375C114.827 141.81 111.597 138.78 108.058 138.611C104.575 138.446 101.163 141.149 101.058 144.705C100.912 148.224 104.181 151.48 107.687 151.635ZM108.565 138.995C111.035 139.116 112.84 141.358 112.61 145.394C112.312 149.726 109.545 151.442 107.13 151.325C104.683 151.195 102.58 148.752 103.112 144.728C103.557 140.953 106.15 138.878 108.565 138.995Z" fill="white"/>
<path d="M89.0367 154.602L88.2986 156.4C88.8176 156.332 89.2299 156.233 89.2299 156.233C92.1953 155.7 93.6304 152.718 93.5187 151.679L94.1804 155.344L96.1901 154.983L95.643 151.953L94.2293 143.982C94.1367 143.469 94.2151 143.203 94.3274 142.703L90.9208 143.315C91.3928 143.407 92.0364 143.468 92.1952 144.347L93.426 151.165C93.505 151.883 93.2212 153.675 89.5715 154.481C89.5715 154.481 89.3264 154.525 89.0367 154.602Z" fill="white"/>
<path d="M71.2626 147.811C72.5003 145.688 74.9217 144.746 76.3653 144.791C81.5174 144.952 82.9388 149.666 82.1886 152.922L74.9707 152.697C74.1237 152.695 72.1022 152.806 72.0522 154.394C72.046 154.593 72.0529 155.959 74.2765 156.55C76.3026 157.086 77.7035 156.906 78.3802 156.778C82.4201 155.861 83.931 152.182 83.931 152.182C85.3321 148.822 83.0171 144.005 78.4125 143.861C76.969 143.816 75.4413 144.066 73.7908 145.058C71.6867 146.21 71.188 147.809 71.188 147.809L71.2626 147.811ZM81.1804 154.878C80.0175 156.208 77.082 156.862 75.2769 155.638C74.2036 154.908 73.6391 153.052 75.358 153.057L82.1591 153.07C81.9871 153.785 81.644 154.396 81.1804 154.878Z" fill="white"/>
<path d="M53.9563 157.978C53.5677 157.239 52.7273 155.207 53.0957 154.447L59.3699 141.503L59.2129 141.427L52.8065 154.473L49.2232 142.294L36.4972 149.205L43.855 134.026L41.8596 133.064L34.3501 148.556L36.3904 149.54L47.3243 143.53L51.0532 156.606L53.9455 158L53.9563 157.978Z" fill="white"/>
<path d="M25.84 134.987C27.4234 138.097 31.6734 139.561 34.7833 137.913C37.9434 136.24 38.9596 131.935 37.3368 128.795C35.7382 125.705 31.6846 124.11 28.5442 125.798C25.4146 127.431 24.2217 131.882 25.84 134.987ZM37.2569 129.425C38.3869 131.618 37.3423 134.298 33.7216 136.117C29.8104 138.026 26.9363 136.495 25.8304 134.351C24.7201 132.173 25.7904 129.136 29.5513 127.582C33.0524 126.079 36.151 127.281 37.2569 129.425Z" fill="white"/>
<path d="M16.6043 121.826L14.674 122.088C14.9925 122.502 15.2848 122.808 15.2848 122.808C17.2298 125.103 20.5376 124.851 21.3846 124.235L18.5318 126.639L19.85 128.194L22.2083 126.207L28.4244 121C28.8238 120.664 29.0943 120.598 29.5843 120.446L27.3499 117.81C27.5061 118.263 27.7749 118.849 27.0902 119.426L21.784 123.898C21.2003 124.325 19.5023 124.976 16.977 122.228C16.977 122.228 16.8162 122.038 16.6043 121.826Z" fill="white"/>
<path d="M14.5201 104.243C16.9825 104.251 19.0121 105.87 19.6947 107.139C22.1309 111.669 18.7467 115.254 15.5439 116.234L12.1309 109.888C11.7088 109.156 10.6019 107.465 9.19743 108.216C9.02186 108.31 7.83843 109 8.4368 111.215C8.9849 113.233 9.84147 114.352 10.2909 114.873C13.1074 117.903 17.0582 117.368 17.0582 117.368C20.6767 116.898 23.703 112.49 21.5258 108.442C20.8432 107.173 19.8619 105.979 18.1752 105.05C16.1231 103.809 14.4848 104.178 14.4848 104.178L14.5201 104.243ZM13.3411 116.341C11.6045 116.002 9.56919 113.794 9.7297 111.623C9.82632 110.331 11.156 108.916 12.012 110.402L15.4005 116.282C14.6935 116.491 13.9918 116.5 13.3411 116.341Z" fill="white"/>
<path d="M6.73338 79.879L7.39246 88.8185L7.74014 88.793L7.08106 79.8535L6.73338 79.879Z" fill="white"/>
<path d="M79.9197 14.1434C79.2091 14.2597 78.5464 14.2223 77.9314 14.0311C77.3165 13.84 76.7992 13.5031 76.3798 13.0206C75.9735 12.5196 75.707 11.8823 75.5803 11.1086C75.3502 9.70334 75.7981 8.52751 76.924 7.58116C78.0631 6.61643 79.9818 5.75915 82.6801 5.00932C82.5896 4.45668 82.4254 3.94854 82.1873 3.48491C81.9625 3.0029 81.636 2.64292 81.208 2.40496C80.7773 2.15121 80.2067 2.0825 79.4962 2.19884C78.754 2.32035 78.076 2.58539 77.4619 2.99398C76.8611 3.38419 76.3272 3.78774 75.8605 4.20464L74.7872 2.84823C75.1406 2.53096 75.5571 2.20336 76.0368 1.86541C76.5139 1.51167 77.0462 1.19754 77.6335 0.923033C78.2209 0.648521 78.862 0.454389 79.5567 0.340639C80.5988 0.170014 81.4798 0.25276 82.1995 0.588879C82.9351 0.922412 83.5175 1.45936 83.9468 2.19973C84.3893 2.92173 84.6984 3.81958 84.8742 4.89328L86.1694 12.8039L84.393 13.0948L83.9515 11.5863L83.8804 11.5979C83.3632 12.2015 82.7711 12.7443 82.1042 13.2263C81.4531 13.7058 80.725 14.0115 79.9197 14.1434ZM80.2485 12.2899C80.8643 12.189 81.4253 11.9513 81.9314 11.5766C82.4533 11.1993 82.9769 10.6839 83.5022 10.0305L82.9167 6.45408C81.5056 6.84723 80.3984 7.26362 79.5948 7.70322C78.7887 8.12704 78.239 8.58184 77.9456 9.06763C77.6497 9.53762 77.5482 10.0568 77.6413 10.6253C77.7628 11.3674 78.0705 11.8601 78.5643 12.1036C79.0555 12.3312 79.6169 12.3933 80.2485 12.2899Z" fill="white"/>
<path d="M123.976 29.6189C123.399 29.1894 122.964 28.6873 122.674 28.1125C122.383 27.5377 122.266 26.9318 122.321 26.2948C122.398 25.6545 122.67 25.0197 123.138 24.3905C123.988 23.2476 125.144 22.7514 126.607 22.902C128.092 23.0492 130.043 23.8312 132.459 25.2481C132.793 24.7986 133.043 24.3272 133.211 23.8336C133.401 23.3368 133.432 22.8519 133.305 22.3788C133.188 21.8929 132.841 21.4352 132.263 21.0057C131.659 20.5571 130.997 20.2543 130.276 20.0974C129.578 19.9372 128.917 19.8344 128.293 19.7891L128.521 18.0745C128.994 18.1077 129.519 18.179 130.096 18.2885C130.682 18.3852 131.278 18.5491 131.884 18.7801C132.489 19.0111 133.075 19.3366 133.64 19.7566C134.487 20.3865 135.041 21.077 135.3 21.8278C135.572 22.5883 135.591 23.3802 135.358 24.2036C135.147 25.0237 134.717 25.8704 134.068 26.7436L129.286 33.177L127.842 32.1032L128.618 30.7366L128.56 30.6937C127.767 30.7419 126.965 30.6941 126.155 30.5504C125.357 30.4162 124.631 30.1057 123.976 29.6189ZM125.537 28.5658C126.038 28.9381 126.599 29.1757 127.22 29.2786C127.854 29.3911 128.588 29.4087 129.423 29.3315L131.585 26.423C130.321 25.6829 129.252 25.177 128.377 24.9056C127.512 24.6213 126.803 24.5427 126.25 24.6699C125.706 24.7842 125.263 25.0726 124.919 25.5348C124.47 26.1384 124.33 26.7022 124.499 27.2263C124.677 27.7375 125.023 28.184 125.537 28.5658Z" fill="white"/>
<path d="M135.745 39.0302C134.992 38.5152 134.354 37.8752 133.831 37.11C133.329 36.3407 132.972 35.5731 132.76 34.8072L134.458 34.1952C134.671 34.9034 134.948 35.5479 135.287 36.1289C135.626 36.7099 136.119 37.2217 136.766 37.6644C137.479 38.1522 138.116 38.3551 138.676 38.2731C139.259 38.1868 139.712 37.906 140.038 37.4306C140.291 37.0609 140.373 36.6713 140.285 36.262C140.218 35.8485 140.053 35.4249 139.787 34.9912C139.544 34.5534 139.274 34.1263 138.977 33.7101C138.611 33.1687 138.265 32.612 137.939 32.0401C137.635 31.4639 137.456 30.876 137.401 30.2762C137.368 29.6723 137.559 29.0666 137.975 28.4591C138.372 27.878 138.87 27.4624 139.468 27.2122C140.074 26.9487 140.745 26.8746 141.481 26.9899C142.225 27.0921 142.987 27.4096 143.766 27.9426C144.426 28.3943 144.959 28.9332 145.364 29.5594C145.783 30.1946 146.079 30.8239 146.253 31.4473L144.61 31.9801C144.42 31.4631 144.191 30.9766 143.921 30.5207C143.665 30.0738 143.299 29.6878 142.824 29.3626C142.137 28.8928 141.52 28.7035 140.973 28.7945C140.448 28.8815 140.041 29.1362 139.752 29.5588C139.527 29.8889 139.442 30.2385 139.5 30.6076C139.571 30.9856 139.731 31.3759 139.979 31.7782C140.236 32.1674 140.508 32.5767 140.796 33.0062C141.093 33.4225 141.374 33.8475 141.64 34.2811C141.918 34.7238 142.128 35.1679 142.269 35.6134C142.424 36.0679 142.471 36.5367 142.412 37.0197C142.376 37.4986 142.181 37.9955 141.829 38.5105C141.431 39.0916 140.913 39.5225 140.275 39.8033C139.651 40.0932 138.948 40.1846 138.169 40.0777C137.411 39.9665 136.603 39.6174 135.745 39.0302Z" fill="white"/>
<path d="M133.831 37.11L133.396 37.3931L133.403 37.4027L133.831 37.11ZM132.76 34.8072L132.584 34.3195L132.131 34.4826L132.26 34.946L132.76 34.8072ZM134.458 34.1952L134.954 34.0456L134.797 33.522L134.282 33.7074L134.458 34.1952ZM135.287 36.1289L135.735 35.8675L135.735 35.8675L135.287 36.1289ZM138.676 38.2731L138.751 38.7861L138.752 38.7859L138.676 38.2731ZM140.285 36.262L139.773 36.3438L139.775 36.3576L139.778 36.3713L140.285 36.262ZM139.787 34.9912L139.334 35.243L139.339 35.2526L139.345 35.2619L139.787 34.9912ZM138.977 33.7101L138.548 34.0007L138.555 34.011L138.977 33.7101ZM137.939 32.0401L137.48 32.2819L137.484 32.2894L137.488 32.2968L137.939 32.0401ZM137.401 30.2762L136.883 30.3042L136.883 30.3139L136.884 30.3235L137.401 30.2762ZM139.468 27.2122L139.668 27.6904L139.674 27.6877L139.468 27.2122ZM141.481 26.9899L141.4 27.5022L141.41 27.5036L141.481 26.9899ZM145.364 29.5594L144.929 29.8411L144.931 29.8446L145.364 29.5594ZM146.253 31.4473L146.413 31.9405L146.887 31.787L146.753 31.3075L146.253 31.4473ZM144.61 31.9801L144.123 32.1582L144.294 32.6273L144.769 32.4733L144.61 31.9801ZM143.921 30.5207L143.472 30.7788L143.475 30.7847L143.921 30.5207ZM140.973 28.7945L141.058 29.306L141.058 29.306L140.973 28.7945ZM139.5 30.6076L138.988 30.6877L138.989 30.6954L138.991 30.7031L139.5 30.6076ZM139.979 31.7782L139.537 32.0504L139.542 32.0573L139.546 32.0641L139.979 31.7782ZM140.796 33.0062L140.365 33.2948L140.37 33.3011L140.374 33.3072L140.796 33.0062ZM141.64 34.2811L141.197 34.5519L141.201 34.5574L141.64 34.2811ZM142.269 35.6134L141.775 35.77L141.778 35.7801L142.269 35.6134ZM142.412 37.0197L141.898 36.9568L141.896 36.9684L141.895 36.98L142.412 37.0197ZM140.275 39.8033L140.067 39.3287L140.057 39.333L140.275 39.8033ZM138.169 40.0777L138.093 40.5907L138.098 40.5913L138.169 40.0777ZM135.745 39.0302L136.037 38.6022C135.339 38.1242 134.746 37.5303 134.258 36.8173L133.831 37.11L133.403 37.4027C133.962 38.2201 134.645 38.9062 135.452 39.4581L135.745 39.0302ZM133.831 37.11L134.265 36.827C133.788 36.0954 133.456 35.376 133.259 34.6685L132.76 34.8072L132.26 34.946C132.489 35.7702 132.87 36.586 133.396 37.393L133.831 37.11ZM132.76 34.8072L132.936 35.295L134.634 34.6829L134.458 34.1952L134.282 33.7074L132.584 34.3195L132.76 34.8072ZM134.458 34.1952L133.961 34.3448C134.186 35.0882 134.477 35.7708 134.839 36.3903L135.287 36.1289L135.735 35.8675C135.418 35.3251 135.157 34.7185 134.954 34.0456L134.458 34.1952ZM135.287 36.1289L134.839 36.3903C135.223 37.0477 135.774 37.6134 136.474 38.0923L136.766 37.6644L137.059 37.2365C136.465 36.83 136.029 36.3721 135.735 35.8675L135.287 36.1289ZM136.766 37.6644L136.474 38.0923C137.239 38.6162 138.009 38.8948 138.751 38.7861L138.676 38.2731L138.601 37.7601C138.223 37.8154 137.719 37.6883 137.059 37.2365L136.766 37.6644ZM138.676 38.2731L138.752 38.7859C139.474 38.6791 140.057 38.3209 140.465 37.7234L140.038 37.4306L139.61 37.1379C139.368 37.4911 139.043 37.6946 138.6 37.7602L138.676 38.2731ZM140.038 37.4306L140.465 37.7234C140.793 37.2453 140.912 36.7117 140.791 36.1527L140.285 36.262L139.778 36.3713C139.834 36.631 139.788 36.8765 139.61 37.1379L140.038 37.4306ZM140.285 36.262L140.797 36.1802C140.718 35.687 140.523 35.1999 140.229 34.7205L139.787 34.9912L139.345 35.2619C139.583 35.6499 139.719 36.0099 139.773 36.3438L140.285 36.262ZM139.787 34.9912L140.24 34.7394C139.987 34.2843 139.707 33.8408 139.399 33.4091L138.977 33.7101L138.555 34.011C138.841 34.4118 139.1 34.8225 139.334 35.243L139.787 34.9912ZM138.977 33.7101L139.406 33.4195C139.048 32.8892 138.709 32.3438 138.389 31.7833L137.939 32.0401L137.488 32.2968C137.821 32.8802 138.174 33.4481 138.548 34.0006L138.977 33.7101ZM137.939 32.0401L138.397 31.7983C138.123 31.2776 137.965 30.7553 137.917 30.2289L137.401 30.2762L136.884 30.3235C136.946 30.9967 137.147 31.6503 137.48 32.2819L137.939 32.0401ZM137.401 30.2762L137.918 30.2482C137.893 29.7811 138.037 29.2861 138.403 28.7518L137.975 28.4591L137.547 28.1664C137.081 28.847 136.843 29.5634 136.883 30.3042L137.401 30.2762ZM137.975 28.4591L138.403 28.7518C138.749 28.2458 139.17 27.8987 139.668 27.6904L139.468 27.2122L139.267 26.7339C138.57 27.0261 137.996 27.5103 137.547 28.1664L137.975 28.4591ZM139.468 27.2122L139.674 27.6877C140.18 27.4682 140.75 27.4001 141.4 27.5021L141.481 26.9899L141.561 26.4777C140.741 26.3492 139.969 26.4292 139.261 26.7366L139.468 27.2122ZM141.481 26.9899L141.41 27.5036C142.057 27.5923 142.744 27.8716 143.473 28.3705L143.766 27.9426L144.059 27.5147C143.23 26.9476 142.393 26.5918 141.551 26.4763L141.481 26.9899ZM143.766 27.9426L143.473 28.3705C144.081 28.7863 144.564 29.2767 144.929 29.8411L145.364 29.5594L145.799 29.2777C145.354 28.5897 144.771 28.0024 144.059 27.5147L143.766 27.9426ZM145.364 29.5594L144.931 29.8446C145.325 30.4427 145.596 31.0234 145.754 31.587L146.253 31.4473L146.753 31.3075C146.562 30.6244 146.24 29.9465 145.797 29.2742L145.364 29.5594ZM146.253 31.4473L146.094 30.9541L144.45 31.4869L144.61 31.9801L144.769 32.4733L146.413 31.9405L146.253 31.4473ZM144.61 31.9801L145.096 31.8021C144.897 31.2563 144.654 30.741 144.368 30.2567L143.921 30.5207L143.475 30.7847C143.728 31.2122 143.944 31.6698 144.123 32.1582L144.61 31.9801ZM143.921 30.5207L144.371 30.2626C144.071 29.7404 143.648 29.2987 143.116 28.9346L142.824 29.3626L142.531 29.7905C142.949 30.0769 143.258 30.4072 143.472 30.7788L143.921 30.5207ZM142.824 29.3626L143.116 28.9346C142.373 28.4265 141.62 28.1612 140.888 28.2831L140.973 28.7945L141.058 29.306C141.42 29.2457 141.9 29.3591 142.531 29.7905L142.824 29.3626ZM140.973 28.7945L140.888 28.2831C140.23 28.3921 139.697 28.7218 139.324 29.2661L139.752 29.5588L140.18 29.8515C140.386 29.5506 140.666 29.3709 141.058 29.306L140.973 28.7945ZM139.752 29.5588L139.324 29.2661C139.03 29.6967 138.908 30.1783 138.988 30.6877L139.5 30.6076L140.012 30.5274C139.977 30.2987 140.023 30.0811 140.18 29.8515L139.752 29.5588ZM139.5 30.6076L138.991 30.7031C139.076 31.1563 139.263 31.6058 139.537 32.0504L139.979 31.7782L140.42 31.5061C140.198 31.1459 140.067 30.815 140.01 30.512L139.5 30.6076ZM139.979 31.7782L139.546 32.0641C139.804 32.4543 140.077 32.8645 140.365 33.2948L140.796 33.0062L141.227 32.7176C140.94 32.289 140.668 31.8806 140.411 31.4924L139.979 31.7782ZM140.796 33.0062L140.374 33.3072C140.664 33.7137 140.938 34.1286 141.197 34.5519L141.64 34.2811L142.082 34.0104C141.81 33.5664 141.522 33.1313 141.218 32.7052L140.796 33.0062ZM141.64 34.2811L141.201 34.5574C141.459 34.9671 141.649 35.3712 141.775 35.77L142.269 35.6134L142.764 35.4568C142.608 34.9646 142.378 34.4806 142.078 34.0049L141.64 34.2811ZM142.269 35.6134L141.778 35.7801C141.907 36.1598 141.947 36.55 141.898 36.9568L142.412 37.0197L142.927 37.0826C142.995 36.5233 142.94 35.976 142.76 35.4467L142.269 35.6134ZM142.412 37.0197L141.895 36.98C141.867 37.3449 141.717 37.7559 141.401 38.2178L141.829 38.5105L142.257 38.8032C142.645 38.2351 142.884 37.6522 142.929 37.0594L142.412 37.0197ZM141.829 38.5105L141.401 38.2178C141.057 38.7198 140.615 39.0874 140.067 39.3288L140.275 39.8033L140.484 40.2778C141.212 39.9576 141.805 39.4633 142.257 38.8032L141.829 38.5105ZM140.275 39.8033L140.057 39.333C139.535 39.5754 138.935 39.6595 138.239 39.564L138.169 40.0777L138.098 40.5913C138.962 40.7098 139.766 40.611 140.494 40.2736L140.275 39.8033ZM138.169 40.0777L138.244 39.5647C137.587 39.4683 136.853 39.1601 136.037 38.6022L135.745 39.0302L135.452 39.4581C136.353 40.0747 137.235 40.4647 138.093 40.5906L138.169 40.0777Z" fill="white"/>
</svg>
