<svg height="202" width="111" fill="none" viewBox="0 0 111 202" xmlns="http://www.w3.org/2000/svg">
	<path d="M1.62623 0.299972C-1.7071 1.63331 0.0262299 7.6333 7.35956 19.7666C11.4929 26.5666 15.2262 32.4333 15.7596 32.9666C16.2929 33.5 22.2929 31.7666 29.0929 29.1L41.4929 24.1666L36.9596 20.4333C30.4262 14.9666 8.95956 1.09997 5.8929 0.299972C4.42623 -0.100028 2.42623 -0.100028 1.62623 0.299972Z" fill="#D8590A"/>
	<path d="M33.8928 35.3666C23.0928 39.9 18.2928 43.3666 22.8262 43.3666C26.1595 43.3666 50.5595 32.4333 49.7595 31.2333C48.6928 29.3666 46.6928 29.9 33.8928 35.3666Z" fill="#D8590A"/>
	<path d="M41.7596 44.5667L26.8262 50.7L40.0262 70.7C47.3596 81.7667 53.8929 92.9667 54.5596 95.6333C56.8262 103.633 54.2929 109.5 39.7596 131.633L26.5596 151.9L41.4929 158.167L56.5596 164.567L81.3596 139.367C94.9596 125.633 107.093 112.167 108.293 109.633C111.36 103.233 111.093 96.9667 107.493 91.1C104.026 85.3667 68.9596 48.1667 61.6262 42.3L56.5596 38.4333L41.7596 44.5667Z" fill="#D8590A"/>
	<path d="M20.6929 160.433C19.6262 162.167 46.8262 172.967 48.4262 171.367C50.0262 169.767 50.5596 170.033 36.5596 164.3C24.1596 159.1 21.8929 158.567 20.6929 160.433Z" fill="#D8590A"/>
	<path d="M11.3596 175.633C2.42623 189.9 -0.240438 195.367 0.159562 198.3C0.959562 204.3 6.2929 202.833 21.3596 192.833C29.0929 187.633 36.5596 182.3 37.8929 180.833C40.1596 178.167 40.1596 178.033 37.0929 176.833C35.3596 176.167 30.1596 174.167 25.6262 172.167C21.0929 170.3 16.9596 168.7 16.5596 168.7C16.1596 168.7 13.8929 171.9 11.3596 175.633Z" fill="#D8590A"/>
</svg>