<svg height="51" width="595" fill="none" viewBox="0 0 595 51" xmlns="http://www.w3.org/2000/svg">
	<path d="M2.25 43.0938C1.45833 43.0938 0.885417 43 0.53125 42.8125C0.177083 42.6042 0 42.2917 0 41.875V5.21875C0 4.38542 0.75 3.96875 2.25 3.96875H4.21875C5.44792 3.96875 6.22917 4.3125 6.5625 5L17.0625 23.2188L18.5 26.7188L19.9375 23.5312L30.4688 5C30.8229 4.3125 31.5938 3.96875 32.7812 3.96875H34.625C36.1042 3.96875 36.8438 4.38542 36.8438 5.21875V41.875C36.8438 42.6875 36.1042 43.0938 34.625 43.0938H34.25C33.4583 43.0938 32.8854 43 32.5312 42.8125C32.1771 42.6042 32 42.2917 32 41.875V11.9688L31.9062 12.2188L20.8438 31.4375C20.6979 31.6875 20.5312 31.875 20.3438 32C20.1562 32.1042 19.9167 32.1562 19.625 32.1562H17.4062C16.8438 32.1562 16.4271 31.9167 16.1562 31.4375L4.84375 11.6562V41.875C4.84375 42.6875 4.10417 43.0938 2.625 43.0938H2.25ZM49.4375 43.0938C47.9375 43.0938 47.1875 42.6875 47.1875 41.875V5.21875C47.1875 4.38542 47.9375 3.96875 49.4375 3.96875H49.875C51.3542 3.96875 52.0938 4.38542 52.0938 5.21875V22.2188H52.3125L65.9688 4.78125C66.2188 4.51042 66.6146 4.3125 67.1562 4.1875C67.7188 4.04167 68.3333 3.96875 69 3.96875H69.5312C70.1562 3.96875 70.6354 4.04167 70.9688 4.1875C71.3021 4.33333 71.4688 4.51042 71.4688 4.71875C71.4688 5.05208 71.2917 5.42708 70.9375 5.84375L57.0625 23.1562L73.875 41.4375C74.2083 41.7917 74.375 42.0833 74.375 42.3125C74.375 42.625 74.1875 42.8333 73.8125 42.9375C73.4583 43.0417 72.8333 43.0938 71.9375 43.0938H71.25C70.4583 43.0938 69.8229 43.0521 69.3438 42.9688C68.8854 42.8854 68.5104 42.6875 68.2188 42.375L52.3125 24.5H52.0938V41.875C52.0938 42.6875 51.3542 43.0938 49.875 43.0938H49.4375ZM88.9375 43.0938C88.1667 43.0938 87.6042 43 87.25 42.8125C86.8958 42.6042 86.7188 42.2917 86.7188 41.875V8.34375H76.0312C75.6354 8.34375 75.3542 8.20833 75.1875 7.9375C75.0208 7.66667 74.9375 7.25 74.9375 6.6875V5.78125C74.9375 5.19792 75.0208 4.78125 75.1875 4.53125C75.3542 4.26042 75.6354 4.125 76.0312 4.125H102.094C102.49 4.125 102.771 4.26042 102.938 4.53125C103.104 4.78125 103.188 5.19792 103.188 5.78125V6.6875C103.188 7.25 103.104 7.66667 102.938 7.9375C102.771 8.20833 102.49 8.34375 102.094 8.34375H91.625V41.875C91.625 42.6875 90.875 43.0938 89.375 43.0938H88.9375ZM124.344 50.7812C123.469 50.7812 123.031 50.375 123.031 49.5625V1.4375C123.031 0.625 123.469 0.21875 124.344 0.21875H124.938C125.812 0.21875 126.25 0.625 126.25 1.4375V49.5625C126.25 50.375 125.812 50.7812 124.938 50.7812H124.344ZM152.25 43.0938C151.458 43.0938 150.885 43 150.531 42.8125C150.177 42.6042 150 42.2917 150 41.875V5.21875C150 4.38542 150.75 3.96875 152.25 3.96875H154.219C155.448 3.96875 156.229 4.3125 156.562 5L167.062 23.2188L168.5 26.7188L169.938 23.5312L180.469 5C180.823 4.3125 181.594 3.96875 182.781 3.96875H184.625C186.104 3.96875 186.844 4.38542 186.844 5.21875V41.875C186.844 42.6875 186.104 43.0938 184.625 43.0938H184.25C183.458 43.0938 182.885 43 182.531 42.8125C182.177 42.6042 182 42.2917 182 41.875V11.9688L181.906 12.2188L170.844 31.4375C170.698 31.6875 170.531 31.875 170.344 32C170.156 32.1042 169.917 32.1562 169.625 32.1562H167.406C166.844 32.1562 166.427 31.9167 166.156 31.4375L154.844 11.6562V41.875C154.844 42.6875 154.104 43.0938 152.625 43.0938H152.25ZM208.5 43.3125C203.896 43.3125 200.469 42.1146 198.219 39.7188C195.99 37.3021 194.875 33.6146 194.875 28.6562C194.875 23.7396 195.969 20.0104 198.156 17.4688C200.344 14.9062 203.562 13.625 207.812 13.625C211.604 13.625 214.458 14.8542 216.375 17.3125C218.312 19.7708 219.281 23.375 219.281 28.125C219.281 28.3333 219.167 28.625 218.938 29C218.729 29.3542 218.469 29.6771 218.156 29.9688C217.865 30.2396 217.615 30.375 217.406 30.375H199.875C200.104 33.4792 200.896 35.75 202.25 37.1875C203.625 38.6042 205.688 39.3125 208.438 39.3125C209.979 39.3125 211.302 39.125 212.406 38.75C213.531 38.375 214.615 37.9167 215.656 37.375C215.76 37.3333 215.917 37.2604 216.125 37.1562C216.333 37.0521 216.479 37 216.562 37C216.792 37 217.052 37.1875 217.344 37.5625C217.656 37.9167 217.917 38.3229 218.125 38.7812C218.354 39.2188 218.469 39.5417 218.469 39.75C218.469 40.2083 218.01 40.7188 217.094 41.2812C216.177 41.8438 214.948 42.3229 213.406 42.7188C211.885 43.1146 210.25 43.3125 208.5 43.3125ZM214.312 26.375C214.312 20.5417 212.094 17.625 207.656 17.625C202.885 17.625 200.292 20.5417 199.875 26.375H214.312ZM235.469 43.3125C233.302 43.3125 231.406 42.6875 229.781 41.4375C228.156 40.1667 226.896 38.4062 226 36.1562C225.125 33.9062 224.688 31.3542 224.688 28.5C224.688 25.3542 225.156 22.6667 226.094 20.4375C227.052 18.1875 228.385 16.4896 230.094 15.3438C231.802 14.1979 233.771 13.625 236 13.625C237.604 13.625 239.021 13.8646 240.25 14.3438C241.5 14.8229 242.729 15.5208 243.938 16.4375V2.4375C243.938 1.625 244.667 1.21875 246.125 1.21875H246.375C247.854 1.21875 248.594 1.625 248.594 2.4375V34.7812C248.594 37.1979 248.708 38.9479 248.938 40.0312C249.167 41.0938 249.281 41.6771 249.281 41.7812C249.281 42.2396 248.927 42.5729 248.219 42.7812C247.531 42.9688 246.885 43.0625 246.281 43.0625C245.865 43.0625 245.531 42.8646 245.281 42.4688C245.031 42.0729 244.854 41.6771 244.75 41.2812C244.667 40.8646 244.521 40.1562 244.312 39.1562C241.667 41.9271 238.719 43.3125 235.469 43.3125ZM236.438 39.2812C237.667 39.2812 238.938 38.9479 240.25 38.2812C241.583 37.6146 242.812 36.6667 243.938 35.4375V20.2188C241.938 18.5521 239.656 17.7188 237.094 17.7188C234.615 17.7812 232.74 18.6875 231.469 20.4375C230.219 22.1875 229.594 24.7292 229.594 28.0625C229.594 31.6458 230.177 34.4167 231.344 36.375C232.531 38.3125 234.229 39.2812 236.438 39.2812ZM260.312 6.9375C258.833 6.9375 258.094 6.53125 258.094 5.71875V2.4375C258.094 1.625 258.833 1.21875 260.312 1.21875H260.969C262.469 1.21875 263.219 1.625 263.219 2.4375V5.71875C263.219 6.53125 262.469 6.9375 260.969 6.9375H260.312ZM260.531 43.0938C259.052 43.0938 258.312 42.6875 258.312 41.875V15.0625C258.312 14.25 259.052 13.8438 260.531 13.8438H260.75C262.25 13.8438 263 14.25 263 15.0625V41.875C263 42.6875 262.25 43.0938 260.75 43.0938H260.531ZM280.219 43.3125C277.385 43.3125 275.094 42.6146 273.344 41.2188C271.594 39.8229 270.719 37.75 270.719 35C270.719 32.1042 271.604 29.9271 273.375 28.4688C275.146 26.9896 277.302 26.0417 279.844 25.625C282.406 25.1875 285.51 24.9375 289.156 24.875V22.25C289.156 20.8542 288.677 19.7396 287.719 18.9062C286.781 18.0521 285.229 17.625 283.062 17.625C281.417 17.625 279.969 17.8229 278.719 18.2188C277.49 18.5938 276.333 19.0521 275.25 19.5938C274.792 19.8229 274.51 19.9375 274.406 19.9375C274.156 19.9375 273.875 19.7604 273.562 19.4062C273.271 19.0312 273.01 18.6146 272.781 18.1562C272.573 17.6979 272.469 17.3646 272.469 17.1562C272.469 16.6771 272.958 16.1562 273.938 15.5938C274.938 15.0312 276.24 14.5625 277.844 14.1875C279.448 13.8125 281.125 13.625 282.875 13.625C286.354 13.625 289.052 14.3854 290.969 15.9062C292.885 17.4271 293.844 19.5625 293.844 22.3125V34.7812C293.844 37.1979 293.948 38.9479 294.156 40.0312C294.385 41.0938 294.5 41.6771 294.5 41.7812C294.5 42.2396 294.146 42.5729 293.438 42.7812C292.75 42.9688 292.104 43.0625 291.5 43.0625C291 43.0625 290.625 42.7812 290.375 42.2188C290.146 41.6562 289.917 40.8438 289.688 39.7812L289.562 39.1562C288.417 40.4271 287.062 41.4375 285.5 42.1875C283.958 42.9375 282.198 43.3125 280.219 43.3125ZM280.469 39.2812C282.302 39.2812 283.865 38.9479 285.156 38.2812C286.448 37.6146 287.781 36.6667 289.156 35.4375V28.875C286.406 28.8958 284.146 29.0104 282.375 29.2188C280.604 29.4271 279.052 29.9583 277.719 30.8125C276.385 31.6458 275.719 32.9479 275.719 34.7188C275.719 36.1979 276.115 37.3333 276.906 38.125C277.719 38.8958 278.906 39.2812 280.469 39.2812ZM318.344 50.7812C317.469 50.7812 317.031 50.375 317.031 49.5625V1.4375C317.031 0.625 317.469 0.21875 318.344 0.21875H318.938C319.812 0.21875 320.25 0.625 320.25 1.4375V49.5625C320.25 50.375 319.812 50.7812 318.938 50.7812H318.344ZM346.062 43C345.479 43 345.052 42.8646 344.781 42.5938C344.51 42.3229 344.375 41.9062 344.375 41.3438V5.78125C344.375 5.19792 344.51 4.78125 344.781 4.53125C345.052 4.26042 345.479 4.125 346.062 4.125H357.281C362.49 4.125 366.656 5.66667 369.781 8.75C372.906 11.8333 374.469 16.7604 374.469 23.5312C374.469 30.3438 372.906 35.2917 369.781 38.375C366.656 41.4583 362.49 43 357.281 43H346.062ZM356.906 38.7812C360.656 38.7812 363.677 37.5625 365.969 35.125C368.26 32.6667 369.406 28.8021 369.406 23.5312C369.406 19.9896 368.865 17.0938 367.781 14.8438C366.698 12.5729 365.219 10.9271 363.344 9.90625C361.469 8.86458 359.323 8.34375 356.906 8.34375H349.281V38.7812H356.906ZM394.312 43.3125C389.708 43.3125 386.281 42.1146 384.031 39.7188C381.802 37.3021 380.688 33.6146 380.688 28.6562C380.688 23.7396 381.781 20.0104 383.969 17.4688C386.156 14.9062 389.375 13.625 393.625 13.625C397.417 13.625 400.271 14.8542 402.188 17.3125C404.125 19.7708 405.094 23.375 405.094 28.125C405.094 28.3333 404.979 28.625 404.75 29C404.542 29.3542 404.281 29.6771 403.969 29.9688C403.677 30.2396 403.427 30.375 403.219 30.375H385.688C385.917 33.4792 386.708 35.75 388.062 37.1875C389.438 38.6042 391.5 39.3125 394.25 39.3125C395.792 39.3125 397.115 39.125 398.219 38.75C399.344 38.375 400.427 37.9167 401.469 37.375C401.573 37.3333 401.729 37.2604 401.938 37.1562C402.146 37.0521 402.292 37 402.375 37C402.604 37 402.865 37.1875 403.156 37.5625C403.469 37.9167 403.729 38.3229 403.938 38.7812C404.167 39.2188 404.281 39.5417 404.281 39.75C404.281 40.2083 403.823 40.7188 402.906 41.2812C401.99 41.8438 400.76 42.3229 399.219 42.7188C397.698 43.1146 396.062 43.3125 394.312 43.3125ZM400.125 26.375C400.125 20.5417 397.906 17.625 393.469 17.625C388.698 17.625 386.104 20.5417 385.688 26.375H400.125ZM418.406 43.5312C416.844 43.5312 415.385 43.3333 414.031 42.9375C412.677 42.5417 411.594 42.0625 410.781 41.5C409.99 40.9167 409.594 40.4062 409.594 39.9688C409.594 39.7604 409.698 39.4271 409.906 38.9688C410.135 38.5104 410.396 38.1042 410.688 37.75C411 37.375 411.281 37.1875 411.531 37.1875C411.594 37.1875 411.781 37.2917 412.094 37.5C412.927 38.0417 413.802 38.5 414.719 38.875C415.656 39.25 416.771 39.4375 418.062 39.4375C421.688 39.4375 423.5 37.9375 423.5 34.9375C423.5 34.0833 423.323 33.3646 422.969 32.7812C422.635 32.1979 422.062 31.6875 421.25 31.25C420.458 30.7917 419.365 30.3542 417.969 29.9375C415.969 29.3542 414.406 28.6875 413.281 27.9375C412.177 27.1875 411.396 26.3125 410.938 25.3125C410.479 24.2917 410.25 23.0625 410.25 21.625C410.25 20.0833 410.635 18.6979 411.406 17.4688C412.198 16.2396 413.292 15.2812 414.688 14.5938C416.104 13.9062 417.698 13.5625 419.469 13.5625C420.698 13.5625 421.875 13.6771 423 13.9062C424.146 14.1354 425.062 14.4375 425.75 14.8125C426.458 15.1667 426.812 15.5417 426.812 15.9375C426.812 16.2292 426.708 16.625 426.5 17.125C426.312 17.6042 426.073 18.0312 425.781 18.4062C425.49 18.7604 425.229 18.9375 425 18.9375C424.958 18.9375 424.698 18.8125 424.219 18.5625C423.74 18.2917 423.125 18.0521 422.375 17.8438C421.646 17.6146 420.833 17.5 419.938 17.5C418.521 17.5 417.344 17.8229 416.406 18.4688C415.49 19.0938 415.031 19.9375 415.031 21C415.031 22.25 415.365 23.25 416.031 24C416.698 24.75 417.802 25.3646 419.344 25.8438C421.719 26.5729 423.531 27.3021 424.781 28.0312C426.031 28.7604 426.917 29.6562 427.438 30.7188C427.979 31.7604 428.25 33.1354 428.25 34.8438C428.25 36.4688 427.812 37.9479 426.938 39.2812C426.062 40.5938 424.875 41.6354 423.375 42.4062C421.875 43.1562 420.219 43.5312 418.406 43.5312ZM442.781 43.3125C439.948 43.3125 437.656 42.6146 435.906 41.2188C434.156 39.8229 433.281 37.75 433.281 35C433.281 32.1042 434.167 29.9271 435.938 28.4688C437.708 26.9896 439.865 26.0417 442.406 25.625C444.969 25.1875 448.073 24.9375 451.719 24.875V22.25C451.719 20.8542 451.24 19.7396 450.281 18.9062C449.344 18.0521 447.792 17.625 445.625 17.625C443.979 17.625 442.531 17.8229 441.281 18.2188C440.052 18.5938 438.896 19.0521 437.812 19.5938C437.354 19.8229 437.073 19.9375 436.969 19.9375C436.719 19.9375 436.438 19.7604 436.125 19.4062C435.833 19.0312 435.573 18.6146 435.344 18.1562C435.135 17.6979 435.031 17.3646 435.031 17.1562C435.031 16.6771 435.521 16.1562 436.5 15.5938C437.5 15.0312 438.802 14.5625 440.406 14.1875C442.01 13.8125 443.688 13.625 445.438 13.625C448.917 13.625 451.615 14.3854 453.531 15.9062C455.448 17.4271 456.406 19.5625 456.406 22.3125V34.7812C456.406 37.1979 456.51 38.9479 456.719 40.0312C456.948 41.0938 457.062 41.6771 457.062 41.7812C457.062 42.2396 456.708 42.5729 456 42.7812C455.312 42.9688 454.667 43.0625 454.062 43.0625C453.562 43.0625 453.188 42.7812 452.938 42.2188C452.708 41.6562 452.479 40.8438 452.25 39.7812L452.125 39.1562C450.979 40.4271 449.625 41.4375 448.062 42.1875C446.521 42.9375 444.76 43.3125 442.781 43.3125ZM443.031 39.2812C444.865 39.2812 446.427 38.9479 447.719 38.2812C449.01 37.6146 450.344 36.6667 451.719 35.4375V28.875C448.969 28.8958 446.708 29.0104 444.938 29.2188C443.167 29.4271 441.615 29.9583 440.281 30.8125C438.948 31.6458 438.281 32.9479 438.281 34.7188C438.281 36.1979 438.677 37.3333 439.469 38.125C440.281 38.8958 441.469 39.2812 443.031 39.2812ZM468.125 43.0938C467.333 43.0938 466.76 43 466.406 42.8125C466.052 42.6042 465.875 42.2917 465.875 41.875V22.375C465.875 19.9583 465.76 18.2188 465.531 17.1562C465.302 16.0729 465.188 15.4792 465.188 15.375C465.188 14.9167 465.531 14.5938 466.219 14.4062C466.927 14.1979 467.594 14.0938 468.219 14.0938C468.719 14.0938 469.094 14.3646 469.344 14.9062C469.594 15.4271 469.812 16.1667 470 17.125L470.156 17.7812C472.135 15.0104 474.281 13.625 476.594 13.625C477.656 13.625 478.458 13.8229 479 14.2188C479.542 14.5938 479.812 15.1042 479.812 15.75C479.812 16.375 479.698 17.0417 479.469 17.75C479.26 18.4375 479.01 18.7812 478.719 18.7812C478.573 18.7812 478.312 18.7188 477.938 18.5938C477.604 18.4479 477.271 18.3438 476.938 18.2812C476.604 18.1979 476.177 18.1562 475.656 18.1562C474.802 18.1562 473.99 18.4062 473.219 18.9062C472.469 19.4062 471.833 19.9583 471.312 20.5625C470.792 21.1667 470.531 21.5 470.531 21.5625V41.875C470.531 42.2917 470.354 42.6042 470 42.8125C469.646 43 469.094 43.0938 468.344 43.0938H468.125ZM488.438 43.0938C487.646 43.0938 487.073 43 486.719 42.8125C486.365 42.6042 486.188 42.2917 486.188 41.875V22.375C486.188 19.9583 486.073 18.2188 485.844 17.1562C485.615 16.0729 485.5 15.4792 485.5 15.375C485.5 14.9167 485.844 14.5938 486.531 14.4062C487.24 14.1979 487.906 14.0938 488.531 14.0938C489.031 14.0938 489.406 14.3646 489.656 14.9062C489.906 15.4271 490.125 16.1667 490.312 17.125L490.469 17.7812C492.448 15.0104 494.594 13.625 496.906 13.625C497.969 13.625 498.771 13.8229 499.312 14.2188C499.854 14.5938 500.125 15.1042 500.125 15.75C500.125 16.375 500.01 17.0417 499.781 17.75C499.573 18.4375 499.323 18.7812 499.031 18.7812C498.885 18.7812 498.625 18.7188 498.25 18.5938C497.917 18.4479 497.583 18.3438 497.25 18.2812C496.917 18.1979 496.49 18.1562 495.969 18.1562C495.115 18.1562 494.302 18.4062 493.531 18.9062C492.781 19.4062 492.146 19.9583 491.625 20.5625C491.104 21.1667 490.844 21.5 490.844 21.5625V41.875C490.844 42.2917 490.667 42.6042 490.312 42.8125C489.958 43 489.406 43.0938 488.656 43.0938H488.438ZM517.438 43.3125C513.25 43.3125 510.052 42.0625 507.844 39.5625C505.656 37.0417 504.562 33.3854 504.562 28.5938C504.562 23.8021 505.677 20.1146 507.906 17.5312C510.135 14.9271 513.312 13.625 517.438 13.625C521.521 13.625 524.646 14.9167 526.812 17.5C528.979 20.0625 530.062 23.7604 530.062 28.5938C530.062 33.4062 528.99 37.0625 526.844 39.5625C524.719 42.0625 521.583 43.3125 517.438 43.3125ZM517.281 39.3125C519.99 39.3125 521.99 38.4375 523.281 36.6875C524.573 34.9167 525.219 32.1875 525.219 28.5C525.219 24.7917 524.573 22.0521 523.281 20.2812C521.99 18.5104 519.99 17.625 517.281 17.625C514.594 17.625 512.615 18.5104 511.344 20.2812C510.073 22.0312 509.438 24.7708 509.438 28.5C509.438 32.2083 510.062 34.9375 511.312 36.6875C512.583 38.4375 514.573 39.3125 517.281 39.3125ZM544.844 43.3125C542.99 43.3125 541.333 42.75 539.875 41.625C538.417 40.5 537.688 38.5104 537.688 35.6562V2.4375C537.688 1.625 538.427 1.21875 539.906 1.21875H540.156C541.615 1.21875 542.344 1.625 542.344 2.4375V35.2188C542.344 36.7396 542.615 37.8021 543.156 38.4062C543.698 39.0104 544.427 39.3125 545.344 39.3125C546.031 39.3125 546.573 39.2708 546.969 39.1875C547.365 39.1042 547.625 39.0625 547.75 39.0625C548.083 39.0625 548.354 39.3958 548.562 40.0625C548.792 40.7292 548.906 41.2604 548.906 41.6562C548.906 42.7604 547.552 43.3125 544.844 43.3125ZM561.406 43.3125C559.552 43.3125 557.896 42.75 556.438 41.625C554.979 40.5 554.25 38.5104 554.25 35.6562V2.4375C554.25 1.625 554.99 1.21875 556.469 1.21875H556.719C558.177 1.21875 558.906 1.625 558.906 2.4375V35.2188C558.906 36.7396 559.177 37.8021 559.719 38.4062C560.26 39.0104 560.99 39.3125 561.906 39.3125C562.594 39.3125 563.135 39.2708 563.531 39.1875C563.927 39.1042 564.188 39.0625 564.312 39.0625C564.646 39.0625 564.917 39.3958 565.125 40.0625C565.354 40.7292 565.469 41.2604 565.469 41.6562C565.469 42.7604 564.115 43.3125 561.406 43.3125ZM582.188 43.3125C578 43.3125 574.802 42.0625 572.594 39.5625C570.406 37.0417 569.312 33.3854 569.312 28.5938C569.312 23.8021 570.427 20.1146 572.656 17.5312C574.885 14.9271 578.062 13.625 582.188 13.625C586.271 13.625 589.396 14.9167 591.562 17.5C593.729 20.0625 594.812 23.7604 594.812 28.5938C594.812 33.4062 593.74 37.0625 591.594 39.5625C589.469 42.0625 586.333 43.3125 582.188 43.3125ZM582.031 39.3125C584.74 39.3125 586.74 38.4375 588.031 36.6875C589.323 34.9167 589.969 32.1875 589.969 28.5C589.969 24.7917 589.323 22.0521 588.031 20.2812C586.74 18.5104 584.74 17.625 582.031 17.625C579.344 17.625 577.365 18.5104 576.094 20.2812C574.823 22.0312 574.188 24.7708 574.188 28.5C574.188 32.2083 574.812 34.9375 576.062 36.6875C577.333 38.4375 579.323 39.3125 582.031 39.3125Z" fill="#D8590A"/>
</svg>