<svg height="112" width="62" fill="none" viewBox="0 0 62 112" xmlns="http://www.w3.org/2000/svg">
	<path d="M0 2.23956C0 3.43956 1.6 6.7729 3.46667 9.5729C7.06667 14.9062 8.26667 15.0396 15.8667 11.1729C18.9333 9.70623 18.8 9.5729 11.6 4.7729C3.46667 -0.69377 0 -1.36044 0 2.23956Z" fill="#FF5900"/>
	<path d="M17.7333 18.7729C11.3333 21.3062 9.46663 23.8395 14 23.8395C17.4666 23.8395 28.1333 18.5062 27.3333 17.1729C26.2666 15.4395 26 15.4395 17.7333 18.7729Z" fill="#FF5900"/>
	<path d="M26.2667 27.7062L17.3333 31.3062L24 41.8395C32 54.5062 32.2667 58.1062 26.2667 67.1729C23.7333 70.9062 20.6667 75.4395 19.3333 77.5729L17.0667 81.1729L24.5333 84.5062C28.6667 86.3729 32.9333 87.8395 33.8667 87.8395C34.8 87.8395 41.4667 81.8395 48.5333 74.5062C65.3333 56.9062 65.3333 56.3729 50.8 40.1062C34.9333 22.5062 36.9333 23.4395 26.2667 27.7062Z" fill="#FF5900"/>
	<path d="M11.6 89.7062C10.8 91.8395 23.4667 97.3062 26.4 96.1062C28.9333 95.1728 26.9333 93.7062 19.0667 90.6395C13.6 88.5062 12.1333 88.3728 11.6 89.7062Z" fill="#FF5900"/>
	<path d="M2.93336 103.706C-0.666636 110.106 -0.79997 111.84 2.80003 111.84C5.33336 111.84 17.3334 104.64 17.3334 103.04C17.3334 102.24 8.6667 98.5062 6.93336 98.5062C6.2667 98.5062 4.53336 100.773 2.93336 103.706Z" fill="#FF5900"/>
</svg>